<?xml version="1.0" encoding="UTF-8"?>
<svg id="Layer_2" data-name="Layer 2" xmlns="http://www.w3.org/2000/svg" viewBox="0 0 677.09 454.78">
  <defs>
    <style>
      .cls-1 {
        fill: #fff;
      }
    </style>
  </defs>
  <g id="Logo">
    <g>
      <g>
        <path class="cls-1" d="m338.51,0c-75.63,0-136.94,61.31-136.94,136.94s61.31,136.94,136.94,136.94,136.94-61.31,136.94-136.94S414.14,0,338.51,0Zm14.77,213.02h-29.99c-27.31,0-49.45-22.14-49.45-49.45v-3.53c0-4.04-1.6-7.91-4.46-10.76l-7.86-7.86c-2.48-2.48-2.48-6.49,0-8.96l7.86-7.86c2.85-2.85,4.46-6.72,4.46-10.76v-3.53c0-27.31,22.14-49.45,49.45-49.45h22.33c25.33,0,46.36,20.73,46.13,46.06-.02,2.75-.29,5.43-.78,8.04-1.42,7.58.2,15.42,4.37,21.91,4.97,7.73,7.84,16.93,7.82,26.8-.06,27.34-22.55,49.35-49.89,49.35Z"/>
        <path class="cls-1" d="m319.49,119.82c0,7.28-5.85,13.2-13.1,13.31-.01,0-.03,0-.04,0h-.17c-.37,0-.73-.02-1.09-.04-6.49-.52-11.66-5.7-12.18-12.18-.03-.36-.04-.72-.04-1.09,0-1.07.13-2.1.36-3.1.44-1.87,1.28-3.58,2.42-5.05,2.43-3.14,6.24-5.16,10.53-5.16,3.65,0,6.95,1.47,9.36,3.85,2.34,2.31,3.83,5.49,3.95,9.02,0,.15,0,.3,0,.45Z"/>
      </g>
      <g>
        <path class="cls-1" d="m0,352.33c0-5.57,4.41-9.98,9.98-9.98h32.14c10.37,0,18.53,2.85,23.72,8.04,4.15,4.15,6.22,9.2,6.22,15.42v.26c0,10.24-5.44,15.94-11.92,19.57,10.5,4.02,16.98,10.68,16.98,22.87v.26c0,16.59-13.48,24.88-33.96,24.88H9.98c-5.57,0-9.98-4.41-9.98-9.98v-71.33Zm37.84,26.7c8.81,0,14.39-2.85,14.39-9.59v-.26c0-5.96-4.67-9.33-13.09-9.33h-19.7v19.18h18.4Zm5.31,37.12c8.81,0,14.13-3.11,14.13-9.85v-.26c0-6.09-4.54-9.85-14.77-9.85h-23.07v19.96h23.72Z"/>
        <path class="cls-1" d="m92.39,373.27c0-5.44,4.41-9.85,9.85-9.85s9.85,4.41,9.85,9.85v50.52c0,5.44-4.41,9.85-9.85,9.85s-9.85-4.41-9.85-9.85v-50.52Z"/>
        <path class="cls-1" d="m130.62,373.27c0-5.44,4.41-9.85,9.85-9.85s9.85,4.41,9.85,9.85v3.11c2.85-6.74,7.52-12.96,13.35-12.96s9.59,4.02,9.59,9.59c0,5.18-3.37,8.29-7.39,9.2-9.98,2.33-15.55,9.98-15.55,23.98v17.6c0,5.44-4.41,9.85-9.85,9.85s-9.85-4.41-9.85-9.85v-50.52Z"/>
        <path class="cls-1" d="m253.35,423.79c0,5.44-4.41,9.85-9.85,9.85s-9.85-4.41-9.85-9.85v-.91c-4.79,6.48-11.4,10.76-21.64,10.76-16.2,0-31.62-11.38-31.62-34.58v-.26c0-23.2,15.16-35.38,31.62-35.38,10.5,0,16.98,4.28,21.64,9.85v-21.07c0-5.44,4.41-9.85,9.85-9.85s9.85,4.41,9.85,9.85v71.59Zm-53.27-24.99v.26c0,11.54,7.78,19.18,16.98,19.18s16.85-7.65,16.85-19.18v-.26c0-11.54-7.65-19.18-16.85-19.18s-16.98,7.52-16.98,19.18Z"/>
        <path class="cls-1" d="m509.01,423.79c0,5.44-4.41,9.85-9.85,9.85s-9.85-4.41-9.85-9.85v-.91c-4.79,6.48-11.4,10.76-21.64,10.76-16.2,0-31.62-11.38-31.62-34.58v-.26c0-23.2,15.16-35.38,31.62-35.38,10.5,0,16.98,4.28,21.64,9.85v-21.07c0-5.44,4.41-9.85,9.85-9.85s9.85,4.41,9.85,9.85v71.59Zm-53.27-24.99v.26c0,11.54,7.78,19.18,16.98,19.18s16.85-7.65,16.85-19.18v-.26c0-11.54-7.65-19.18-16.85-19.18s-16.98,7.52-16.98,19.18Z"/>
        <path class="cls-1" d="m596.48,423.79c0,5.44-4.41,9.85-9.85,9.85s-9.85-4.41-9.85-9.85v-.91c-4.79,6.48-11.4,10.76-21.64,10.76-16.2,0-31.62-11.38-31.62-34.58v-.26c0-23.2,15.16-35.38,31.62-35.38,10.5,0,16.98,4.28,21.64,9.85v-21.07c0-5.44,4.41-9.85,9.85-9.85s9.85,4.41,9.85,9.85v71.59Zm-53.27-24.99v.26c0,11.54,7.78,19.18,16.98,19.18s16.85-7.65,16.85-19.18v-.26c0-11.54-7.65-19.18-16.85-19.18s-16.98,7.52-16.98,19.18Z"/>
        <path class="cls-1" d="m270.96,352.2c0-5.44,4.41-9.85,9.85-9.85s9.85,4.41,9.85,9.85v21.07c4.66-5.57,11.15-9.85,21.64-9.85,16.46,0,31.62,12.18,31.62,35.38v.26c0,23.2-15.42,34.58-31.62,34.58-10.24,0-16.85-4.28-21.64-10.76v.91c0,5.44-4.41,9.85-9.85,9.85-5.44,0-9.85-4.41-9.85-9.85v-71.59Zm36.29,27.42c-9.2,0-16.85,7.65-16.85,19.18v.26c0,11.54,7.65,19.18,16.85,19.18,9.2,0,16.98-7.65,16.98-19.18v-.26c0-11.66-7.78-19.18-16.98-19.18Z"/>
        <path class="cls-1" d="m421.55,423.79c0,5.44-4.41,9.85-9.85,9.85s-9.85-4.41-9.85-9.85v-.78c-4.54,5.83-10.37,10.63-20.35,10.63-14.9,0-23.59-8.53-23.59-24.47v-35.9c0-5.44,4.41-9.85,9.85-9.85s9.85,4.41,9.85,9.85v29.68c0,9.33,4.41,14.13,11.92,14.13s12.31-4.79,12.31-14.13v-29.68c0-5.44,4.41-9.85,9.85-9.85s9.85,4.41,9.85,9.85v50.52Z"/>
        <path class="cls-1" d="m617.73,452.97c-2.85-1.04-6.22-3.37-6.22-8.17s3.76-8.03,7.78-8.03c1.56,0,2.46.26,3.24.52,1.68.52,2.72.78,4.15.78,3.5,0,5.19-.65,7-4.15l.65-1.56-23.72-54.95c-.52-1.3-1.04-3.24-1.04-4.54,0-5.57,4.28-9.46,9.72-9.46,4.92,0,7.78,2.72,9.46,7.39l15.03,40.43,14.51-40.3c1.56-4.15,4.41-7.52,9.46-7.52s9.33,3.89,9.33,9.07c0,1.55-.52,3.76-.91,4.66l-24.24,58.19c-5.83,14.13-11.66,19.44-23.46,19.44-4.41,0-7.52-.65-10.75-1.81Z"/>
        <circle class="cls-1" cx="102.24" cy="342.35" r="11.41"/>
      </g>
    </g>
  </g>
</svg>